<?xml version="1.0" encoding="UTF-8"?>
<!DOCTYPE svg PUBLIC "-//W3C//DTD SVG 1.1//EN" "http://www.w3.org/Graphics/SVG/1.1/DTD/svg11.dtd">
<svg xmlns="http://www.w3.org/2000/svg" version="1.1" width="488px" height="154px" style="shape-rendering:geometricPrecision; text-rendering:geometricPrecision; image-rendering:optimizeQuality; fill-rule:evenodd; clip-rule:evenodd" xmlns:xlink="http://www.w3.org/1999/xlink">
<g><path style="opacity:1" fill="#111112" d="M 94.5,4.5 C 94.6309,5.37644 94.2975,6.04311 93.5,6.5C 81.5491,2.67262 69.5491,2.50595 57.5,6C 73.5546,4.76464 88.5546,8.09798 102.5,16C 102.272,16.3988 101.938,16.5654 101.5,16.5C 79.152,6.64149 57.152,7.30816 35.5,18.5C 28.4531,21.109 22.2864,25.109 17,30.5C 16.5357,29.9056 16.369,29.2389 16.5,28.5C 34.384,7.02836 57.384,-1.80497 85.5,2C 88.7422,2.40612 91.7422,3.23945 94.5,4.5 Z"/></g>
<g><path style="opacity:1" fill="#2f2e30" d="M 94.5,4.5 C 98.7843,5.26135 102.784,6.59468 106.5,8.5C 103.09,9.09429 101.924,11.0943 103,14.5C 105.906,17.0373 109.073,19.204 112.5,21C 109.577,20.2242 106.577,19.3908 103.5,18.5C 102.833,17.8333 102.167,17.1667 101.5,16.5C 101.938,16.5654 102.272,16.3988 102.5,16C 88.5546,8.09798 73.5546,4.76464 57.5,6C 69.5491,2.50595 81.5491,2.67262 93.5,6.5C 94.2975,6.04311 94.6309,5.37644 94.5,4.5 Z"/></g>
<g><path style="opacity:0.655" fill="#9991a9" d="M 166.5,13.5 C 166.5,12.8333 166.167,12.5 165.5,12.5C 169.79,9.90342 174.457,8.40342 179.5,8C 175.183,9.93681 170.85,11.7701 166.5,13.5 Z"/></g>
<g><path style="opacity:1" fill="#1c1b1e" d="M 225.5,33.5 C 225.427,35.0269 226.094,36.0269 227.5,36.5C 232.556,43.1222 235.889,50.6222 237.5,59C 236.928,62.4205 235.928,65.5872 234.5,68.5C 234.666,62.8236 234.499,57.1569 234,51.5C 233.329,50.7476 232.496,50.4142 231.5,50.5C 229.665,44.1484 226.331,38.815 221.5,34.5C 217.115,29.9702 211.782,26.9702 205.5,25.5C 204.01,23.7202 202.01,23.0535 199.5,23.5C 199.978,19.6625 198.978,16.3291 196.5,13.5C 197.873,13.6567 199.207,13.49 200.5,13C 185.813,10.2844 173.48,14.4511 163.5,25.5C 160.757,27.2393 158.757,29.5726 157.5,32.5C 155.032,35.1577 152.365,37.4911 149.5,39.5C 147.738,38.7377 146.738,37.4044 146.5,35.5C 158.023,19.5635 173.69,10.5635 193.5,8.5C 195.5,8.66667 197.5,8.83333 199.5,9C 210.302,14.9708 218.969,23.1375 225.5,33.5 Z"/></g>
<g><path style="opacity:0.863" fill="#5c5b5e" d="M 165.5,12.5 C 166.167,12.5 166.5,12.8333 166.5,13.5C 163.709,15.7349 160.709,17.7349 157.5,19.5C 157.737,18.209 157.404,17.209 156.5,16.5C 159.088,14.3754 162.088,13.0421 165.5,12.5 Z"/></g>
<g><path style="opacity:1" fill="#746c7e" d="M 196.5,13.5 C 192.183,13.0834 188.183,13.7501 184.5,15.5C 183.127,15.3433 181.793,15.51 180.5,16C 178.382,17.0821 176.382,18.2488 174.5,19.5C 172.326,19.7497 170.659,20.7497 169.5,22.5C 167.589,23.075 165.922,24.075 164.5,25.5C 164.167,25.5 163.833,25.5 163.5,25.5C 173.48,14.4511 185.813,10.2844 200.5,13C 199.207,13.49 197.873,13.6567 196.5,13.5 Z"/></g>
<g><path style="opacity:1" fill="#3d266c" d="M 184.5,15.5 C 185.583,15.5394 186.583,15.8728 187.5,16.5C 187.997,18.216 188.331,19.8827 188.5,21.5C 191.95,23.2242 195.617,23.8909 199.5,23.5C 202.01,23.0535 204.01,23.7202 205.5,25.5C 198.877,24.6204 192.211,24.287 185.5,24.5C 182.675,23.5221 181.342,21.5221 181.5,18.5C 179.194,18.9926 176.861,19.3259 174.5,19.5C 176.382,18.2488 178.382,17.0821 180.5,16C 181.793,15.51 183.127,15.3433 184.5,15.5 Z"/></g>
<g><path style="opacity:1" fill="#4f4465" d="M 106.5,8.5 C 112.65,10.7396 118.316,13.7396 123.5,17.5C 121.278,17.822 119.444,17.1554 118,15.5C 117.5,16 117,16.5 116.5,17C 118.013,19.4541 117.346,21.1207 114.5,22C 115.305,23.1127 115.972,24.2794 116.5,25.5C 112,23.4174 107.666,21.0841 103.5,18.5C 106.577,19.3908 109.577,20.2242 112.5,21C 109.073,19.204 105.906,17.0373 103,14.5C 101.924,11.0943 103.09,9.09429 106.5,8.5 Z"/></g>
<g><path style="opacity:1" fill="#20133b" d="M 196.5,13.5 C 198.978,16.3291 199.978,19.6625 199.5,23.5C 195.617,23.8909 191.95,23.2242 188.5,21.5C 188.331,19.8827 187.997,18.216 187.5,16.5C 186.583,15.8728 185.583,15.5394 184.5,15.5C 188.183,13.7501 192.183,13.0834 196.5,13.5 Z"/></g>
<g><path style="opacity:1" fill="#2f2f2d" d="M 156.5,16.5 C 157.404,17.209 157.737,18.209 157.5,19.5C 155.692,19.4914 154.025,19.9914 152.5,21C 149,23.6686 145.667,26.502 142.5,29.5C 141.711,29.2172 141.044,28.7172 140.5,28C 145.333,23.4217 150.667,19.5884 156.5,16.5 Z"/></g>
<g><path style="opacity:0.794" fill="#6b6b6c" d="M 157.5,19.5 C 153.342,23.1573 149.342,26.9906 145.5,31C 144.002,31.5847 143.002,31.0847 142.5,29.5C 145.667,26.502 149,23.6686 152.5,21C 154.025,19.9914 155.692,19.4914 157.5,19.5 Z"/></g>
<g><path style="opacity:1" fill="#4d2f89" d="M 185.5,24.5 C 185.5,25.1667 185.167,25.5 184.5,25.5C 180.934,26.4377 177.6,27.7711 174.5,29.5C 177.33,27.6377 178.163,24.9711 177,21.5C 176.439,20.9781 175.772,20.6448 175,20.5C 173.2,21.3195 171.366,21.9862 169.5,22.5C 170.659,20.7497 172.326,19.7497 174.5,19.5C 176.861,19.3259 179.194,18.9926 181.5,18.5C 181.342,21.5221 182.675,23.5221 185.5,24.5 Z"/></g>
<g><path style="opacity:1" fill="#643faf" d="M 174.5,29.5 C 172.999,30.7515 171.332,31.7515 169.5,32.5C 170.527,30.474 171.861,28.6407 173.5,27C 172.492,24.6547 170.825,23.6547 168.5,24C 167.211,25.8022 165.544,26.9688 163.5,27.5C 163.833,26.8333 164.167,26.1667 164.5,25.5C 165.922,24.075 167.589,23.075 169.5,22.5C 171.366,21.9862 173.2,21.3195 175,20.5C 175.772,20.6448 176.439,20.9781 177,21.5C 178.163,24.9711 177.33,27.6377 174.5,29.5 Z"/></g>
<g><path style="opacity:1" fill="#65508f" d="M 123.5,17.5 C 126.563,19.0252 129.23,21.0252 131.5,23.5C 128.45,22.9232 126.45,24.0899 125.5,27C 126.669,29.0065 127.335,31.1732 127.5,33.5C 123.81,30.8015 120.143,28.1348 116.5,25.5C 115.972,24.2794 115.305,23.1127 114.5,22C 117.346,21.1207 118.013,19.4541 116.5,17C 117,16.5 117.5,16 118,15.5C 119.444,17.1554 121.278,17.822 123.5,17.5 Z"/></g>
<g><path style="opacity:1" fill="#9e72f5" d="M 209.5,37.5 C 204.025,34.0791 198.025,32.7458 191.5,33.5C 190.624,33.6309 189.957,33.2975 189.5,32.5C 190.189,30.556 190.689,28.556 191,26.5C 194.829,25.2113 198.996,25.2113 203.5,26.5C 210.203,27.1741 215.203,30.3408 218.5,36C 215.649,37.2886 212.649,37.7886 209.5,37.5 Z"/></g>
<g><path style="opacity:1" fill="#787878" d="M 101.5,16.5 C 102.167,17.1667 102.833,17.8333 103.5,18.5C 96.8804,16.5724 90.2137,14.739 83.5,13C 75.5,12.3333 67.5,12.3333 59.5,13C 57.6183,13.1981 55.9516,13.6981 54.5,14.5C 41.3669,16.7794 30.5336,23.1127 22,33.5C 18.5553,38.7315 15.3886,44.0649 12.5,49.5C 16.7611,36.5815 24.4278,26.2481 35.5,18.5C 57.152,7.30816 79.152,6.64149 101.5,16.5 Z"/></g>
<g><path style="opacity:1" fill="#383737" d="M 85.5,27.5 C 91.6096,29.7865 97.6096,32.2865 103.5,35C 105.706,36.6839 107.206,38.8505 108,41.5C 108.333,40.8333 108.667,40.1667 109,39.5C 110.008,41.259 111.508,42.4257 113.5,43C 109.551,43.8068 109.551,44.3068 113.5,44.5C 113.5,45.8333 113.5,47.1667 113.5,48.5C 110.953,47.0664 108.619,45.3998 106.5,43.5C 99.7424,39.125 92.4091,35.7916 84.5,33.5C 84.4142,32.5041 84.7476,31.6708 85.5,31C 81.8149,30.0855 82.1482,29.4189 86.5,29C 85.944,28.6174 85.6107,28.1174 85.5,27.5 Z"/></g>
<g><path style="opacity:1" fill="#725c9a" d="M 163.5,25.5 C 163.833,25.5 164.167,25.5 164.5,25.5C 164.167,26.1667 163.833,26.8333 163.5,27.5C 161.5,29.1667 159.5,30.8333 157.5,32.5C 158.757,29.5726 160.757,27.2393 163.5,25.5 Z"/></g>
<g><path style="opacity:1" fill="#7e62b6" d="M 131.5,23.5 C 136.132,26.7978 140.466,30.4645 144.5,34.5C 141.839,33.8412 139.506,32.5078 137.5,30.5C 131.841,32.4671 131.174,35.4671 135.5,39.5C 133.938,39.2671 132.605,38.6005 131.5,37.5C 130.167,36.1667 128.833,34.8333 127.5,33.5C 127.335,31.1732 126.669,29.0065 125.5,27C 126.45,24.0899 128.45,22.9232 131.5,23.5 Z"/></g>
<g><path style="opacity:1" fill="#4b4b4b" d="M 85.5,27.5 C 85.6107,28.1174 85.944,28.6174 86.5,29C 82.1482,29.4189 81.8149,30.0855 85.5,31C 84.7476,31.6708 84.4142,32.5041 84.5,33.5C 58.0902,29.0251 40.7568,39.3584 32.5,64.5C 32.3169,71.8681 32.6502,79.2015 33.5,86.5C 29.4393,80.0977 27.4393,72.9311 27.5,65C 27.9204,44.9814 37.5871,31.9814 56.5,26C 66.2708,25.0921 75.9374,25.5921 85.5,27.5 Z"/></g>
<g><path style="opacity:0.951" fill="#f3f2f4" d="M 84.5,33.5 C 92.4091,35.7916 99.7424,39.125 106.5,43.5C 102.661,46.1382 98.6606,46.8048 94.5,45.5C 94.9382,45.5654 95.2716,45.3988 95.5,45C 91.7297,41.9077 87.3964,40.0743 82.5,39.5C 80.8984,37.9261 78.8984,37.2594 76.5,37.5C 65.4098,36.305 56.0765,39.6384 48.5,47.5C 46.5831,48.9093 44.7498,50.576 43,52.5C 42.3083,53.4368 42.475,54.1034 43.5,54.5C 42.0927,56.3083 40.926,58.3083 40,60.5C 39.6667,60.1667 39.3333,59.8333 39,59.5C 37.2419,61.7655 35.0752,63.4322 32.5,64.5C 40.7568,39.3584 58.0902,29.0251 84.5,33.5 Z"/></g>
<g><path style="opacity:1" fill="#8665c8" d="M 185.5,24.5 C 192.211,24.287 198.877,24.6204 205.5,25.5C 211.782,26.9702 217.115,29.9702 221.5,34.5C 221.5,36.1667 221.5,37.8333 221.5,39.5C 220.167,39.5 218.833,39.5 217.5,39.5C 217.831,41.3224 218.498,42.9891 219.5,44.5C 217.565,43.8505 215.565,43.5172 213.5,43.5C 213.167,43.5 212.833,43.5 212.5,43.5C 213.476,42.1851 214.476,40.8518 215.5,39.5C 213.369,38.8313 211.369,38.1646 209.5,37.5C 212.649,37.7886 215.649,37.2886 218.5,36C 215.203,30.3408 210.203,27.1741 203.5,26.5C 198.996,25.2113 194.829,25.2113 191,26.5C 190.689,28.556 190.189,30.556 189.5,32.5C 189.957,33.2975 190.624,33.6309 191.5,33.5C 189.735,34.4614 187.735,34.7947 185.5,34.5C 184.305,34.1344 183.639,33.301 183.5,32C 184.287,29.9011 184.62,27.7345 184.5,25.5C 185.167,25.5 185.5,25.1667 185.5,24.5 Z"/></g>
<g><path style="opacity:1" fill="#52456c" d="M 184.5,25.5 C 184.62,27.7345 184.287,29.9011 183.5,32C 183.639,33.301 184.305,34.1344 185.5,34.5C 185.5,35.1667 185.5,35.8333 185.5,36.5C 185.158,37.3382 184.492,37.6716 183.5,37.5C 181.708,37.634 180.042,37.3007 178.5,36.5C 177.725,34.6119 177.725,32.6119 178.5,30.5C 177.127,30.3433 175.793,30.51 174.5,31C 172.778,33.5108 170.445,35.0108 167.5,35.5C 167.427,33.9731 168.094,32.9731 169.5,32.5C 171.332,31.7515 172.999,30.7515 174.5,29.5C 177.6,27.7711 180.934,26.4377 184.5,25.5 Z"/></g>
<g><path style="opacity:1" fill="#804de5" d="M 169.5,32.5 C 168.094,32.9731 167.427,33.9731 167.5,35.5C 165.405,36.412 163.405,37.5787 161.5,39C 160.177,39.8159 159.511,40.9826 159.5,42.5C 158.167,43.1667 157.167,44.1667 156.5,45.5C 154.856,45.1898 153.856,44.1898 153.5,42.5C 154.645,39.0581 155.979,35.7248 157.5,32.5C 159.5,30.8333 161.5,29.1667 163.5,27.5C 165.544,26.9688 167.211,25.8022 168.5,24C 170.825,23.6547 172.492,24.6547 173.5,27C 171.861,28.6407 170.527,30.474 169.5,32.5 Z"/></g>
<g><path style="opacity:0.573" fill="#7d7c7f" d="M 225.5,33.5 C 226.906,33.9731 227.573,34.9731 227.5,36.5C 226.094,36.0269 225.427,35.0269 225.5,33.5 Z"/></g>
<g><path style="opacity:1" fill="#8f6bd8" d="M 144.5,34.5 C 145.167,34.8333 145.833,35.1667 146.5,35.5C 146.738,37.4044 147.738,38.7377 149.5,39.5C 150.167,40.5 150.833,41.5 151.5,42.5C 149.61,42.7035 148.11,42.0368 147,40.5C 146.075,41.0465 145.242,41.7132 144.5,42.5C 146.194,44.5543 147.361,46.8877 148,49.5C 150.04,51.3702 151.873,53.3702 153.5,55.5C 152.391,55.4431 151.391,55.1098 150.5,54.5C 147.833,51.1667 144.833,48.1667 141.5,45.5C 139.5,43.5 137.5,41.5 135.5,39.5C 131.174,35.4671 131.841,32.4671 137.5,30.5C 139.506,32.5078 141.839,33.8412 144.5,34.5 Z"/></g>
<g><path style="opacity:1" fill="#565557" d="M 178.5,36.5 C 180.042,37.3007 181.708,37.634 183.5,37.5C 178.564,41.0963 173.897,45.0963 169.5,49.5C 168.681,46.9768 169.681,45.1435 172.5,44C 170.068,42.9125 170.402,42.4125 173.5,42.5C 173.729,40.567 174.562,38.9003 176,37.5C 177.461,38.8825 178.294,38.5492 178.5,36.5 Z"/></g>
<g><path style="opacity:1" fill="#8a70ba" d="M 191.5,33.5 C 198.025,32.7458 204.025,34.0791 209.5,37.5C 211.369,38.1646 213.369,38.8313 215.5,39.5C 214.476,40.8518 213.476,42.1851 212.5,43.5C 212.167,43.5 211.833,43.5 211.5,43.5C 210.5,43.5 209.5,43.5 208.5,43.5C 208.5,44.8333 208.5,46.1667 208.5,47.5C 206.157,42.3143 202.491,38.1476 197.5,35C 193.506,35.1637 189.506,35.6637 185.5,36.5C 185.5,35.8333 185.5,35.1667 185.5,34.5C 187.735,34.7947 189.735,34.4614 191.5,33.5 Z"/></g>
<g><path style="opacity:1" fill="#1a1a1c" d="M 76.5,37.5 C 75.4816,39.8415 73.8149,41.5082 71.5,42.5C 69.5,42.5 67.5,42.5 65.5,42.5C 63.2181,41.6103 60.8848,41.4436 58.5,42C 54.9518,43.604 51.6184,45.4374 48.5,47.5C 56.0765,39.6384 65.4098,36.305 76.5,37.5 Z"/></g>
<g><path style="opacity:1" fill="#3b344b" d="M 76.5,37.5 C 78.8984,37.2594 80.8984,37.9261 82.5,39.5C 81.9569,39.56 81.6236,39.8933 81.5,40.5C 82.7701,41.2876 83.7701,42.2876 84.5,43.5C 80.2022,42.8005 75.8689,42.4672 71.5,42.5C 73.8149,41.5082 75.4816,39.8415 76.5,37.5 Z"/></g>
<g><path style="opacity:1" fill="#161617" d="M 103.5,18.5 C 107.666,21.0841 112,23.4174 116.5,25.5C 120.143,28.1348 123.81,30.8015 127.5,33.5C 128.833,34.8333 130.167,36.1667 131.5,37.5C 132.074,40.9675 133.908,43.6341 137,45.5C 137.814,49.4802 139.981,52.4802 143.5,54.5C 143.145,55.5223 142.478,56.189 141.5,56.5C 133.619,49.2864 125.619,42.1197 117.5,35C 99.3552,21.7711 79.3552,16.9378 57.5,20.5C 55.7085,20.366 54.0418,20.6993 52.5,21.5C 51.4381,19.121 50.1048,19.121 48.5,21.5C 46.9984,20.9169 45.6651,20.0836 44.5,19C 45.1079,18.1301 45.9412,17.6301 47,17.5C 48.4651,18.3295 49.9651,18.4962 51.5,18C 51.1667,17.6667 50.8333,17.3333 50.5,17C 51.8584,16.0656 53.1917,15.2323 54.5,14.5C 55.9516,13.6981 57.6183,13.1981 59.5,13C 67.5,12.3333 75.5,12.3333 83.5,13C 90.2137,14.739 96.8804,16.5724 103.5,18.5 Z"/></g>
<g><path style="opacity:1" fill="#51387b" d="M 167.5,35.5 C 165.249,38.2948 162.582,40.6281 159.5,42.5C 159.511,40.9826 160.177,39.8159 161.5,39C 163.405,37.5787 165.405,36.412 167.5,35.5 Z"/></g>
<g><path style="opacity:1" fill="#7c60b1" d="M 221.5,34.5 C 226.331,38.815 229.665,44.1484 231.5,50.5C 232.776,56.9195 233.776,63.2528 234.5,69.5C 234.008,71.8185 233.008,73.8185 231.5,75.5C 231.433,74.0413 231.766,72.7079 232.5,71.5C 232.718,66.7885 232.385,62.1219 231.5,57.5C 229.11,53.4517 226.11,50.1184 222.5,47.5C 221.694,46.2719 220.694,45.2719 219.5,44.5C 218.498,42.9891 217.831,41.3224 217.5,39.5C 218.833,39.5 220.167,39.5 221.5,39.5C 221.5,37.8333 221.5,36.1667 221.5,34.5 Z"/></g>
<g><path style="opacity:1" fill="#262626" d="M 141.5,56.5 C 141.215,58.288 141.548,59.9547 142.5,61.5C 145.528,63.7469 146.695,66.7469 146,70.5C 143.881,69.3492 142.047,67.8492 140.5,66C 139.251,65.2599 138.251,65.4265 137.5,66.5C 135.15,65.1389 132.816,63.8056 130.5,62.5C 130.5,62.1667 130.5,61.8333 130.5,61.5C 130.027,60.0937 129.027,59.427 127.5,59.5C 122.833,55.8333 118.167,52.1667 113.5,48.5C 113.5,47.1667 113.5,45.8333 113.5,44.5C 109.551,44.3068 109.551,43.8068 113.5,43C 111.508,42.4257 110.008,41.259 109,39.5C 108.667,40.1667 108.333,40.8333 108,41.5C 107.206,38.8505 105.706,36.6839 103.5,35C 97.6096,32.2865 91.6096,29.7865 85.5,27.5C 83.7226,26.3995 81.7226,25.5662 79.5,25C 78.1667,24 78.1667,23 79.5,22C 72.339,19.2924 65.0057,18.7924 57.5,20.5C 79.3552,16.9378 99.3552,21.7711 117.5,35C 125.619,42.1197 133.619,49.2864 141.5,56.5 Z"/></g>
<g><path style="opacity:1" fill="#6942b5" d="M 157.5,32.5 C 155.979,35.7248 154.645,39.0581 153.5,42.5C 152.833,42.5 152.167,42.5 151.5,42.5C 150.833,41.5 150.167,40.5 149.5,39.5C 152.365,37.4911 155.032,35.1577 157.5,32.5 Z"/></g>
<g><path style="opacity:1" fill="#6b579b" d="M 82.5,39.5 C 87.3964,40.0743 91.7297,41.9077 95.5,45C 95.2716,45.3988 94.9382,45.5654 94.5,45.5C 91.1353,44.9604 87.802,44.2937 84.5,43.5C 83.7701,42.2876 82.7701,41.2876 81.5,40.5C 81.6236,39.8933 81.9569,39.56 82.5,39.5 Z"/></g>
<g><path style="opacity:0.955" fill="#494949" d="M 65.5,42.5 C 57.0591,44.3886 49.7258,48.3886 43.5,54.5C 42.475,54.1034 42.3083,53.4368 43,52.5C 44.7498,50.576 46.5831,48.9093 48.5,47.5C 51.6184,45.4374 54.9518,43.604 58.5,42C 60.8848,41.4436 63.2181,41.6103 65.5,42.5 Z"/></g>
<g><path style="opacity:1" fill="#262626" d="M 54.5,14.5 C 53.1917,15.2323 51.8584,16.0656 50.5,17C 50.8333,17.3333 51.1667,17.6667 51.5,18C 49.9651,18.4962 48.4651,18.3295 47,17.5C 45.9412,17.6301 45.1079,18.1301 44.5,19C 45.6651,20.0836 46.9984,20.9169 48.5,21.5C 50.1048,19.121 51.4381,19.121 52.5,21.5C 34.551,28.3004 24.051,41.3004 21,60.5C 19.4397,71.2549 20.7731,81.5882 25,91.5C 23.6132,79.8429 24.7799,79.1762 28.5,89.5C 29.8485,90.9093 31.1819,92.2426 32.5,93.5C 34.9877,98.6549 38.9877,101.988 44.5,103.5C 49.0209,107.591 54.0209,110.924 59.5,113.5C 35.7927,114.126 19.4594,103.46 10.5,81.5C 9.73373,79.3157 9.06706,76.9823 8.5,74.5C 9.27865,69.8867 9.77865,65.22 10,60.5C 10.2735,58.6711 11.1068,57.1711 12.5,56C 11.6669,53.9189 11.6669,51.7522 12.5,49.5C 15.3886,44.0649 18.5553,38.7315 22,33.5C 30.5336,23.1127 41.3669,16.7794 54.5,14.5 Z"/></g>
<g><path style="opacity:0.999" fill="#373737" d="M 35.5,18.5 C 24.4278,26.2481 16.7611,36.5815 12.5,49.5C 11.6669,51.7522 11.6669,53.9189 12.5,56C 11.1068,57.1711 10.2735,58.6711 10,60.5C 9.77865,65.22 9.27865,69.8867 8.5,74.5C 9.06706,76.9823 9.73373,79.3157 10.5,81.5C 13.8263,99.1677 22.4929,113.501 36.5,124.5C 36.2172,125.289 35.7172,125.956 35,126.5C 34.8814,131.282 34.2148,135.949 33,140.5C 31.6439,139.62 30.1439,139.286 28.5,139.5C 13.5432,127.922 3.87654,112.922 -0.5,94.5C -0.5,84.1667 -0.5,73.8333 -0.5,63.5C 2.21731,50.3988 7.88398,38.7321 16.5,28.5C 16.369,29.2389 16.5357,29.9056 17,30.5C 22.2864,25.109 28.4531,21.109 35.5,18.5 Z"/></g>
<g><path style="opacity:1" fill="#3c3c3c" d="M 85.5,27.5 C 75.9374,25.5921 66.2708,25.0921 56.5,26C 37.5871,31.9814 27.9204,44.9814 27.5,65C 27.4393,72.9311 29.4393,80.0977 33.5,86.5C 33.7733,88.451 33.1066,89.951 31.5,91C 32.3279,91.9147 33.3279,92.5814 34.5,93C 33.9056,93.4643 33.2389,93.631 32.5,93.5C 31.1819,92.2426 29.8485,90.9093 28.5,89.5C 24.7799,79.1762 23.6132,79.8429 25,91.5C 20.7731,81.5882 19.4397,71.2549 21,60.5C 24.051,41.3004 34.551,28.3004 52.5,21.5C 54.0418,20.6993 55.7085,20.366 57.5,20.5C 65.0057,18.7924 72.339,19.2924 79.5,22C 78.1667,23 78.1667,24 79.5,25C 81.7226,25.5662 83.7226,26.3995 85.5,27.5 Z"/></g>
<g><path style="opacity:1" fill="#7158a5" d="M 159.5,42.5 C 159.08,44.0936 158.414,45.5936 157.5,47C 159.07,49.0591 160.403,51.2258 161.5,53.5C 158.167,51.8413 156.5,49.1746 156.5,45.5C 157.167,44.1667 158.167,43.1667 159.5,42.5 Z"/></g>
<g><path style="opacity:1" fill="#363437" d="M 178.5,36.5 C 178.294,38.5492 177.461,38.8825 176,37.5C 174.562,38.9003 173.729,40.567 173.5,42.5C 170.402,42.4125 170.068,42.9125 172.5,44C 169.681,45.1435 168.681,46.9768 169.5,49.5C 168.66,51.8525 167.326,53.8525 165.5,55.5C 165.167,55.5 164.833,55.5 164.5,55.5C 163.5,54.8333 162.5,54.1667 161.5,53.5C 160.403,51.2258 159.07,49.0591 157.5,47C 158.414,45.5936 159.08,44.0936 159.5,42.5C 162.582,40.6281 165.249,38.2948 167.5,35.5C 170.445,35.0108 172.778,33.5108 174.5,31C 175.793,30.51 177.127,30.3433 178.5,30.5C 177.725,32.6119 177.725,34.6119 178.5,36.5 Z"/></g>
<g><path style="opacity:1" fill="#8a52f7" d="M 222.5,47.5 C 226.11,50.1184 229.11,53.4517 231.5,57.5C 232.385,62.1219 232.718,66.7885 232.5,71.5C 231.069,71.8807 230.236,72.8807 230,74.5C 228.913,72.0684 228.413,72.4017 228.5,75.5C 227.5,75.5 226.5,75.5 225.5,75.5C 225.357,77.2624 225.691,78.9291 226.5,80.5C 225.277,81.6139 223.944,81.7805 222.5,81C 220.455,75.0801 217.789,69.5801 214.5,64.5C 215.5,64.5 216.5,64.5 217.5,64.5C 217.786,62.7231 218.453,61.0564 219.5,59.5C 218.739,55.5046 218.072,51.5046 217.5,47.5C 219.167,47.5 220.833,47.5 222.5,47.5 Z"/></g>
<g><path style="opacity:1" fill="#12061e" d="M 231.5,50.5 C 232.496,50.4142 233.329,50.7476 234,51.5C 234.499,57.1569 234.666,62.8236 234.5,68.5C 234.5,68.8333 234.5,69.1667 234.5,69.5C 233.776,63.2528 232.776,56.9195 231.5,50.5 Z"/></g>
<g><path style="opacity:0.725" fill="#a7a6aa" d="M 127.5,59.5 C 129.027,59.427 130.027,60.0937 130.5,61.5C 128.973,61.573 127.973,60.9063 127.5,59.5 Z"/></g>
<g><path style="opacity:0.914" fill="#b29dd3" d="M 125.5,61.5 C 124.041,61.4326 122.708,61.7659 121.5,62.5C 122.244,59.1155 123.577,58.7822 125.5,61.5 Z"/></g>
<g><path style="opacity:1" fill="#7f50de" d="M 211.5,43.5 C 215.029,49.4148 215.362,55.4148 212.5,61.5C 211.5,61.5 210.5,61.5 209.5,61.5C 209.819,56.6367 209.486,51.97 208.5,47.5C 208.5,46.1667 208.5,44.8333 208.5,43.5C 209.5,43.5 210.5,43.5 211.5,43.5 Z"/></g>
<g><path style="opacity:1" fill="#b493f1" d="M 164.5,55.5 C 164.833,55.5 165.167,55.5 165.5,55.5C 170.986,60.7483 177.319,64.7483 184.5,67.5C 185.167,68.1667 185.833,68.8333 186.5,69.5C 180.642,67.3244 174.809,64.9911 169,62.5C 166.991,60.479 165.491,58.1457 164.5,55.5 Z"/></g>
<g><path style="opacity:1" fill="#7e59cd" d="M 125.5,61.5 C 126.678,63.3379 126.345,65.0045 124.5,66.5C 122.121,67.5669 121.121,66.5669 121.5,63.5C 121.5,63.1667 121.5,62.8333 121.5,62.5C 122.708,61.7659 124.041,61.4326 125.5,61.5 Z"/></g>
<g><path style="opacity:0.827" fill="#a48dca" d="M 206.5,61.5 C 205.833,64.1667 204.167,65.8333 201.5,66.5C 202.833,64.5 204.5,62.8333 206.5,61.5 Z"/></g>
<g><path style="opacity:0.582" fill="#848484" d="M 300.5,77.5 C 298.167,77.5 295.833,77.5 293.5,77.5C 293.5,75.1667 293.5,72.8333 293.5,70.5C 296.5,70.5 299.5,70.5 302.5,70.5C 302.5,72.1667 302.5,73.8333 302.5,75.5C 304.5,75.5 306.5,75.5 308.5,75.5C 308.5,72.1667 308.5,68.8333 308.5,65.5C 300.5,65.5 292.5,65.5 284.5,65.5C 284.5,67.1667 284.5,68.8333 284.5,70.5C 285.5,70.5 286.5,70.5 287.5,70.5C 287.5,77.5 287.5,84.5 287.5,91.5C 286.5,91.5 285.5,91.5 284.5,91.5C 284.5,93.1667 284.5,94.8333 284.5,96.5C 283.539,94.7354 283.205,92.7354 283.5,90.5C 284.5,90.5 285.5,90.5 286.5,90.5C 286.5,84.1667 286.5,77.8333 286.5,71.5C 285.5,71.5 284.5,71.5 283.5,71.5C 283.5,69.1667 283.5,66.8333 283.5,64.5C 292.167,64.5 300.833,64.5 309.5,64.5C 309.5,68.5 309.5,72.5 309.5,76.5C 306.833,76.5 304.167,76.5 301.5,76.5C 301.5,74.8333 301.5,73.1667 301.5,71.5C 299.167,71.5 296.833,71.5 294.5,71.5C 294.5,73.1667 294.5,74.8333 294.5,76.5C 296.735,76.2053 298.735,76.5386 300.5,77.5 Z"/></g>
<g><path style="opacity:0.577" fill="#6f6f6f" d="M 323.5,65.5 C 327.97,64.5139 332.637,64.1805 337.5,64.5C 337.5,66.8333 337.5,69.1667 337.5,71.5C 336.209,71.2627 335.209,71.596 334.5,72.5C 333.957,72.44 333.624,72.1067 333.5,71.5C 334.325,70.6143 335.325,70.281 336.5,70.5C 336.5,68.8333 336.5,67.1667 336.5,65.5C 332.167,65.5 327.833,65.5 323.5,65.5 Z"/></g>
<g><path style="opacity:0.578" fill="#8a8a8a" d="M 354.5,64.5 C 354.5,64.8333 354.5,65.1667 354.5,65.5C 350.167,65.5 345.833,65.5 341.5,65.5C 341.5,67.1667 341.5,68.8333 341.5,70.5C 342.5,70.5 343.5,70.5 344.5,70.5C 344.737,71.791 344.404,72.791 343.5,73.5C 343.179,71.9519 342.179,71.2852 340.5,71.5C 340.5,69.1667 340.5,66.8333 340.5,64.5C 345.167,64.5 349.833,64.5 354.5,64.5 Z"/></g>
<g><path style="opacity:0.576" fill="#7a7a7a" d="M 388.5,75.5 C 390.5,75.5 392.5,75.5 394.5,75.5C 394.5,72.1667 394.5,68.8333 394.5,65.5C 386.5,65.5 378.5,65.5 370.5,65.5C 370.5,67.5 370.5,69.5 370.5,71.5C 369.532,69.3926 369.198,67.0593 369.5,64.5C 378.167,64.5 386.833,64.5 395.5,64.5C 395.5,68.5 395.5,72.5 395.5,76.5C 392.941,76.8016 390.607,76.4682 388.5,75.5 Z"/></g>
<g><path style="opacity:0.579" fill="#8d8d8d" d="M 487.5,64.5 C 487.5,67.8333 487.5,71.1667 487.5,74.5C 487.167,74.5 486.833,74.5 486.5,74.5C 486.5,71.5 486.5,68.5 486.5,65.5C 477.167,65.5 467.833,65.5 458.5,65.5C 458.5,68.5 458.5,71.5 458.5,74.5C 460.5,74.5 462.5,74.5 464.5,74.5C 462.393,75.4682 460.059,75.8016 457.5,75.5C 457.5,71.8333 457.5,68.1667 457.5,64.5C 467.5,64.5 477.5,64.5 487.5,64.5 Z"/></g>
<g><path style="opacity:1" fill="#494748" d="M 130.5,62.5 C 132.816,63.8056 135.15,65.1389 137.5,66.5C 137.5,66.8333 137.5,67.1667 137.5,67.5C 136.599,68.2905 135.932,69.2905 135.5,70.5C 135.167,70.5 134.833,70.5 134.5,70.5C 131.988,68.5333 129.321,68.2 126.5,69.5C 127.079,66.6689 128.412,64.3356 130.5,62.5 Z"/></g>
<g><path style="opacity:1" fill="#060606" d="M 300.5,77.5 C 300.5,79.5 300.5,81.5 300.5,83.5C 298.5,83.5 296.5,83.5 294.5,83.5C 294.5,85.8333 294.5,88.1667 294.5,90.5C 296.833,90.5 299.167,90.5 301.5,90.5C 302.451,89.0813 302.784,87.4147 302.5,85.5C 304.5,85.5 306.5,85.5 308.5,85.5C 308.5,89.1667 308.5,92.8333 308.5,96.5C 300.5,96.5 292.5,96.5 284.5,96.5C 284.5,94.8333 284.5,93.1667 284.5,91.5C 285.5,91.5 286.5,91.5 287.5,91.5C 287.5,84.5 287.5,77.5 287.5,70.5C 286.5,70.5 285.5,70.5 284.5,70.5C 284.5,68.8333 284.5,67.1667 284.5,65.5C 292.5,65.5 300.5,65.5 308.5,65.5C 308.5,68.8333 308.5,72.1667 308.5,75.5C 306.5,75.5 304.5,75.5 302.5,75.5C 302.5,73.8333 302.5,72.1667 302.5,70.5C 299.5,70.5 296.5,70.5 293.5,70.5C 293.5,72.8333 293.5,75.1667 293.5,77.5C 295.833,77.5 298.167,77.5 300.5,77.5 Z"/></g>
<g><path style="opacity:1" fill="#191919" d="M 323.5,65.5 C 327.833,65.5 332.167,65.5 336.5,65.5C 336.5,67.1667 336.5,68.8333 336.5,70.5C 335.325,70.281 334.325,70.6143 333.5,71.5C 333.624,72.1067 333.957,72.44 334.5,72.5C 336.279,76.5948 337.612,80.9281 338.5,85.5C 339.301,87.7929 339.968,87.4596 340.5,84.5C 341.036,80.6861 342.036,77.0194 343.5,73.5C 344.404,72.791 344.737,71.791 344.5,70.5C 343.5,70.5 342.5,70.5 341.5,70.5C 341.5,68.8333 341.5,67.1667 341.5,65.5C 345.833,65.5 350.167,65.5 354.5,65.5C 354.5,67.1667 354.5,68.8333 354.5,70.5C 352.821,70.2852 351.821,70.9519 351.5,72.5C 349.167,80.5 346.833,88.5 344.5,96.5C 340.894,96.7892 337.394,96.4558 334,95.5C 331.519,88.2385 329.352,80.9052 327.5,73.5C 327.5,72.5 327.5,71.5 327.5,70.5C 326.167,70.5 324.833,70.5 323.5,70.5C 323.5,68.8333 323.5,67.1667 323.5,65.5 Z"/></g>
<g><path style="opacity:0.187" fill="#d7d7d7" d="M 354.5,64.5 C 355.468,66.6074 355.802,68.9407 355.5,71.5C 354.041,71.4326 352.708,71.7659 351.5,72.5C 351.821,70.9519 352.821,70.2852 354.5,70.5C 354.5,68.8333 354.5,67.1667 354.5,65.5C 354.5,65.1667 354.5,64.8333 354.5,64.5 Z"/></g>
<g><path style="opacity:1" fill="#111111" d="M 388.5,75.5 C 387.566,74.4324 387.232,73.099 387.5,71.5C 385.167,71.5 382.833,71.5 380.5,71.5C 380.5,73.1667 380.5,74.8333 380.5,76.5C 386.5,75.1667 388.833,77.5 387.5,83.5C 385.167,83.5 382.833,83.5 380.5,83.5C 380.5,85.8333 380.5,88.1667 380.5,90.5C 382.833,90.5 385.167,90.5 387.5,90.5C 388.451,89.0813 388.784,87.4147 388.5,85.5C 390.833,85.5 393.167,85.5 395.5,85.5C 395.5,89.1667 395.5,92.8333 395.5,96.5C 387.167,96.5 378.833,96.5 370.5,96.5C 370.5,94.8333 370.5,93.1667 370.5,91.5C 371.5,91.5 372.5,91.5 373.5,91.5C 373.824,84.6457 373.491,77.979 372.5,71.5C 371.833,71.5 371.167,71.5 370.5,71.5C 370.5,69.5 370.5,67.5 370.5,65.5C 378.5,65.5 386.5,65.5 394.5,65.5C 394.5,68.8333 394.5,72.1667 394.5,75.5C 392.5,75.5 390.5,75.5 388.5,75.5 Z"/></g>
<g><path style="opacity:1" fill="#141414" d="M 423.5,68.5 C 423.427,70.0269 424.094,71.0269 425.5,71.5C 425.427,73.0269 426.094,74.0269 427.5,74.5C 428.338,74.8417 428.672,75.5084 428.5,76.5C 428.427,78.0269 429.094,79.0269 430.5,79.5C 430.427,81.0269 431.094,82.0269 432.5,82.5C 432.987,83.4734 433.487,84.4734 434,85.5C 434.499,80.5111 434.666,75.5111 434.5,70.5C 433.5,70.5 432.5,70.5 431.5,70.5C 431.5,68.5 431.5,66.5 431.5,64.5C 435.833,64.5 440.167,64.5 444.5,64.5C 444.795,66.7354 444.461,68.7354 443.5,70.5C 442.5,70.5 441.5,70.5 440.5,70.5C 440.5,79.1667 440.5,87.8333 440.5,96.5C 438.143,96.6633 435.81,96.4966 433.5,96C 429.186,90.5317 425.52,84.6983 422.5,78.5C 422.217,77.7109 421.717,77.0442 421,76.5C 420.185,81.3522 420.352,86.0189 421.5,90.5C 422.5,90.5 423.5,90.5 424.5,90.5C 424.5,92.5 424.5,94.5 424.5,96.5C 420.167,96.5 415.833,96.5 411.5,96.5C 411.025,93.9179 411.692,91.9179 413.5,90.5C 414.491,84.021 414.824,77.3543 414.5,70.5C 413.5,70.5 412.5,70.5 411.5,70.5C 411.5,68.5 411.5,66.5 411.5,64.5C 414.85,64.335 418.183,64.5017 421.5,65C 422.823,65.8159 423.489,66.9826 423.5,68.5 Z"/></g>
<g><path style="opacity:1" fill="#131313" d="M 486.5,74.5 C 484.393,75.4682 482.059,75.8016 479.5,75.5C 479.5,73.8333 479.5,72.1667 479.5,70.5C 478.167,70.5 476.833,70.5 475.5,70.5C 475.5,77.1667 475.5,83.8333 475.5,90.5C 476.833,90.5 478.167,90.5 479.5,90.5C 479.5,92.5 479.5,94.5 479.5,96.5C 474.5,96.5 469.5,96.5 464.5,96.5C 464.5,94.5 464.5,92.5 464.5,90.5C 465.833,90.5 467.167,90.5 468.5,90.5C 468.5,83.8333 468.5,77.1667 468.5,70.5C 467.5,70.5 466.5,70.5 465.5,70.5C 465.768,72.099 465.434,73.4324 464.5,74.5C 462.5,74.5 460.5,74.5 458.5,74.5C 458.5,71.5 458.5,68.5 458.5,65.5C 467.833,65.5 477.167,65.5 486.5,65.5C 486.5,68.5 486.5,71.5 486.5,74.5 Z"/></g>
<g><path style="opacity:1" fill="#8369b7" d="M 121.5,63.5 C 121.121,66.5669 122.121,67.5669 124.5,66.5C 123.083,69.669 121.417,72.669 119.5,75.5C 119.437,72.8049 118.437,71.8049 116.5,72.5C 117.917,69.331 119.583,66.331 121.5,63.5 Z"/></g>
<g><path style="opacity:1" fill="#33244f" d="M 150.5,54.5 C 151.391,55.1098 152.391,55.4431 153.5,55.5C 156.5,59.1667 159.833,62.5 163.5,65.5C 166.535,69.7296 169.202,74.2296 171.5,79C 171.167,79.3333 170.833,79.6667 170.5,80C 171.899,80.5946 173.232,80.4279 174.5,79.5C 174.833,79.8333 175.167,80.1667 175.5,80.5C 173.076,82.7136 173.743,83.7136 177.5,83.5C 177.298,85.9892 177.798,88.3225 179,90.5C 181.426,92.4524 183.926,94.119 186.5,95.5C 181.835,94.9431 177.502,93.6098 173.5,91.5C 173.662,89.4727 173.495,87.4727 173,85.5C 171.229,84.6959 169.729,83.5292 168.5,82C 169.727,80.4126 169.394,79.0793 167.5,78C 165.131,77.4641 163.131,76.2974 161.5,74.5C 160.385,73.4016 160.385,72.2349 161.5,71C 159.855,69.3551 158.188,67.6884 156.5,66C 157.747,64.5064 157.747,63.0064 156.5,61.5C 153.33,60.1557 151.33,57.8224 150.5,54.5 Z"/></g>
<g><path style="opacity:1" fill="#7953c5" d="M 208.5,47.5 C 209.486,51.97 209.819,56.6367 209.5,61.5C 210.5,61.5 211.5,61.5 212.5,61.5C 210.12,67.1987 205.787,70.1987 199.5,70.5C 199.082,69.7784 198.416,69.2784 197.5,69C 199.32,68.7996 200.653,67.9663 201.5,66.5C 204.167,65.8333 205.833,64.1667 206.5,61.5C 208.113,56.9932 208.779,52.3266 208.5,47.5 Z"/></g>
<g><path style="opacity:1" fill="#c29bfd" d="M 211.5,43.5 C 211.833,43.5 212.167,43.5 212.5,43.5C 212.833,43.5 213.167,43.5 213.5,43.5C 218.466,53.2074 217.132,61.874 209.5,69.5C 205.685,70.9932 201.685,71.6598 197.5,71.5C 193.531,71.7058 189.865,71.0392 186.5,69.5C 190.81,70.0802 195.143,70.4135 199.5,70.5C 205.787,70.1987 210.12,67.1987 212.5,61.5C 215.362,55.4148 215.029,49.4148 211.5,43.5 Z"/></g>
<g><path style="opacity:1" fill="#a073f8" d="M 151.5,42.5 C 152.167,42.5 152.833,42.5 153.5,42.5C 153.856,44.1898 154.856,45.1898 156.5,45.5C 156.5,49.1746 158.167,51.8413 161.5,53.5C 162.5,54.1667 163.5,54.8333 164.5,55.5C 165.491,58.1457 166.991,60.479 169,62.5C 174.809,64.9911 180.642,67.3244 186.5,69.5C 189.865,71.0392 193.531,71.7058 197.5,71.5C 201.685,71.6598 205.685,70.9932 209.5,69.5C 208.375,71.1288 207.041,72.6288 205.5,74C 200.151,76.7585 194.484,78.7585 188.5,80C 191.817,80.4983 195.15,80.665 198.5,80.5C 197.081,81.4511 195.415,81.7845 193.5,81.5C 190.215,81.7896 187.215,81.123 184.5,79.5C 179.942,77.6141 175.608,75.2807 171.5,72.5C 168.874,70.1765 166.207,67.8432 163.5,65.5C 159.833,62.5 156.5,59.1667 153.5,55.5C 151.873,53.3702 150.04,51.3702 148,49.5C 147.361,46.8877 146.194,44.5543 144.5,42.5C 145.242,41.7132 146.075,41.0465 147,40.5C 148.11,42.0368 149.61,42.7035 151.5,42.5 Z"/></g>
<g><path style="opacity:1" fill="#121113" d="M 134.5,70.5 C 133.099,74.9635 131.432,79.2968 129.5,83.5C 122.737,93.4311 114.403,101.931 104.5,109C 98.8096,112.063 92.8096,114.23 86.5,115.5C 85.2739,115.48 84.2739,115.147 83.5,114.5C 92.5007,111.333 100.334,106.333 107,99.5C 114.271,89.9466 120.771,79.9466 126.5,69.5C 129.321,68.2 131.988,68.5333 134.5,70.5 Z"/></g>
<g><path style="opacity:1" fill="#6b51a0" d="M 201.5,66.5 C 200.653,67.9663 199.32,68.7996 197.5,69C 198.416,69.2784 199.082,69.7784 199.5,70.5C 195.143,70.4135 190.81,70.0802 186.5,69.5C 185.833,68.8333 185.167,68.1667 184.5,67.5C 190.253,68.8202 195.919,68.4869 201.5,66.5 Z"/></g>
<g><path style="opacity:1" fill="#8653ea" d="M 213.5,43.5 C 215.565,43.5172 217.565,43.8505 219.5,44.5C 220.694,45.2719 221.694,46.2719 222.5,47.5C 220.833,47.5 219.167,47.5 217.5,47.5C 218.072,51.5046 218.739,55.5046 219.5,59.5C 218.453,61.0564 217.786,62.7231 217.5,64.5C 216.5,64.5 215.5,64.5 214.5,64.5C 217.789,69.5801 220.455,75.0801 222.5,81C 223.944,81.7805 225.277,81.6139 226.5,80.5C 225.691,78.9291 225.357,77.2624 225.5,75.5C 226.5,75.5 227.5,75.5 228.5,75.5C 228.413,72.4017 228.913,72.0684 230,74.5C 230.236,72.8807 231.069,71.8807 232.5,71.5C 231.766,72.7079 231.433,74.0413 231.5,75.5C 230.831,78.8489 229.164,81.5156 226.5,83.5C 222.842,84.1276 220.342,82.7943 219,79.5C 218.308,80.0253 217.808,80.6919 217.5,81.5C 218.782,83.1792 219.782,85.0126 220.5,87C 218.888,87.7203 217.388,87.5536 216,86.5C 214.381,77.5793 209.881,75.5793 202.5,80.5C 201.167,80.5 199.833,80.5 198.5,80.5C 195.15,80.665 191.817,80.4983 188.5,80C 194.484,78.7585 200.151,76.7585 205.5,74C 207.041,72.6288 208.375,71.1288 209.5,69.5C 217.132,61.874 218.466,53.2074 213.5,43.5 Z"/></g>
<g><path style="opacity:0.514" fill="#898989" d="M 423.5,68.5 C 424.906,68.9731 425.573,69.9731 425.5,71.5C 424.094,71.0269 423.427,70.0269 423.5,68.5 Z"/></g>
<g><path style="opacity:0.365" fill="#aeaeae" d="M 323.5,70.5 C 324.833,70.5 326.167,70.5 327.5,70.5C 327.5,71.5 327.5,72.5 327.5,73.5C 326.26,72.3412 324.926,71.3412 323.5,70.5 Z"/></g>
<g><path style="opacity:0.492" fill="#868686" d="M 443.5,70.5 C 441.893,79.0834 440.893,87.7501 440.5,96.5C 440.5,87.8333 440.5,79.1667 440.5,70.5C 441.5,70.5 442.5,70.5 443.5,70.5 Z"/></g>
<g><path style="opacity:1" fill="#211e29" d="M 131.5,37.5 C 132.605,38.6005 133.938,39.2671 135.5,39.5C 137.5,41.5 139.5,43.5 141.5,45.5C 142.728,48.0751 144.395,50.4084 146.5,52.5C 145.833,53.1667 145.167,53.8333 144.5,54.5C 145.776,55.6446 147.109,55.6446 148.5,54.5C 149.192,57.1451 150.192,59.6451 151.5,62C 150.57,63.1939 149.903,64.5272 149.5,66C 150.856,67.5671 151.523,69.4004 151.5,71.5C 152.833,71.5 154.167,71.5 155.5,71.5C 155.337,73.8568 155.503,76.1902 156,78.5C 157.388,80.7024 158.888,82.7024 160.5,84.5C 158.205,83.5254 156.205,82.1921 154.5,80.5C 149.052,75.9356 143.385,71.6023 137.5,67.5C 137.5,67.1667 137.5,66.8333 137.5,66.5C 138.251,65.4265 139.251,65.2599 140.5,66C 142.047,67.8492 143.881,69.3492 146,70.5C 146.695,66.7469 145.528,63.7469 142.5,61.5C 141.548,59.9547 141.215,58.288 141.5,56.5C 142.478,56.189 143.145,55.5223 143.5,54.5C 139.981,52.4802 137.814,49.4802 137,45.5C 133.908,43.6341 132.074,40.9675 131.5,37.5 Z"/></g>
<g><path style="opacity:1" fill="#2e243f" d="M 141.5,45.5 C 144.833,48.1667 147.833,51.1667 150.5,54.5C 151.33,57.8224 153.33,60.1557 156.5,61.5C 157.747,63.0064 157.747,64.5064 156.5,66C 158.188,67.6884 159.855,69.3551 161.5,71C 160.385,72.2349 160.385,73.4016 161.5,74.5C 163.131,76.2974 165.131,77.4641 167.5,78C 169.394,79.0793 169.727,80.4126 168.5,82C 169.729,83.5292 171.229,84.6959 173,85.5C 173.495,87.4727 173.662,89.4727 173.5,91.5C 168.68,89.9259 164.347,87.5926 160.5,84.5C 158.888,82.7024 157.388,80.7024 156,78.5C 155.503,76.1902 155.337,73.8568 155.5,71.5C 154.167,71.5 152.833,71.5 151.5,71.5C 151.523,69.4004 150.856,67.5671 149.5,66C 149.903,64.5272 150.57,63.1939 151.5,62C 150.192,59.6451 149.192,57.1451 148.5,54.5C 147.109,55.6446 145.776,55.6446 144.5,54.5C 145.167,53.8333 145.833,53.1667 146.5,52.5C 144.395,50.4084 142.728,48.0751 141.5,45.5 Z"/></g>
<g><path style="opacity:0.412" fill="#a1a1a1" d="M 425.5,71.5 C 426.906,71.9731 427.573,72.9731 427.5,74.5C 426.094,74.0269 425.427,73.0269 425.5,71.5 Z"/></g>
<g><path style="opacity:1" fill="#716a80" d="M 137.5,67.5 C 143.385,71.6023 149.052,75.9356 154.5,80.5C 153.624,80.3691 152.957,80.7025 152.5,81.5C 151.198,85.1128 149.531,88.4461 147.5,91.5C 147.708,89.0799 147.374,86.7466 146.5,84.5C 147.751,83.3689 148.751,82.0356 149.5,80.5C 149.333,79.8333 149.167,79.1667 149,78.5C 147.951,79.5171 146.784,79.6838 145.5,79C 144.205,76.2419 142.539,73.7419 140.5,71.5C 138.955,70.5481 137.288,70.2148 135.5,70.5C 135.932,69.2905 136.599,68.2905 137.5,67.5 Z"/></g>
<g><path style="opacity:1" fill="#766990" d="M 135.5,70.5 C 137.288,70.2148 138.955,70.5481 140.5,71.5C 142.539,73.7419 144.205,76.2419 145.5,79C 146.784,79.6838 147.951,79.5171 149,78.5C 149.167,79.1667 149.333,79.8333 149.5,80.5C 148.751,82.0356 147.751,83.3689 146.5,84.5C 147.374,86.7466 147.708,89.0799 147.5,91.5C 146.008,95.8178 144.008,99.8178 141.5,103.5C 142.314,98.6854 143.648,94.0187 145.5,89.5C 144.302,83.5388 141.969,78.2055 138.5,73.5C 137.694,72.2719 136.694,71.2719 135.5,70.5 Z"/></g>
<g><path style="opacity:1" fill="#46326c" d="M 163.5,65.5 C 166.207,67.8432 168.874,70.1765 171.5,72.5C 171.5,73.8333 171.5,75.1667 171.5,76.5C 174.226,76.2639 176.559,77.0972 178.5,79C 177.332,80.4056 177.665,81.5723 179.5,82.5C 178.814,84.0639 178.981,85.7306 180,87.5C 183.501,93.0766 188.668,95.7433 195.5,95.5C 198.5,95.5 201.5,95.5 204.5,95.5C 198.63,96.7662 192.63,96.7662 186.5,95.5C 183.926,94.119 181.426,92.4524 179,90.5C 177.798,88.3225 177.298,85.9892 177.5,83.5C 173.743,83.7136 173.076,82.7136 175.5,80.5C 175.167,80.1667 174.833,79.8333 174.5,79.5C 173.232,80.4279 171.899,80.5946 170.5,80C 170.833,79.6667 171.167,79.3333 171.5,79C 169.202,74.2296 166.535,69.7296 163.5,65.5 Z"/></g>
<g><path style="opacity:0.291" fill="#b3b3b3" d="M 411.5,70.5 C 412.5,70.5 413.5,70.5 414.5,70.5C 414.824,77.3543 414.491,84.021 413.5,90.5C 414.066,83.5491 413.399,76.8824 411.5,70.5 Z"/></g>
<g><path style="opacity:0.565" fill="#7d7d7d" d="M 428.5,76.5 C 429.906,76.9731 430.573,77.9731 430.5,79.5C 429.094,79.0269 428.427,78.0269 428.5,76.5 Z"/></g>
<g><path style="opacity:1" fill="#442c75" d="M 134.5,70.5 C 134.833,70.5 135.167,70.5 135.5,70.5C 136.694,71.2719 137.694,72.2719 138.5,73.5C 134.606,82.291 129.939,90.6243 124.5,98.5C 123.728,99.6935 122.728,100.694 121.5,101.5C 123.833,96.8333 126.167,92.1667 128.5,87.5C 128.833,86.1667 129.167,84.8333 129.5,83.5C 131.432,79.2968 133.099,74.9635 134.5,70.5 Z"/></g>
<g><path style="opacity:0.433" fill="#919191" d="M 422.5,78.5 C 421.517,82.2984 421.183,86.2984 421.5,90.5C 420.352,86.0189 420.185,81.3522 421,76.5C 421.717,77.0442 422.217,77.7109 422.5,78.5 Z"/></g>
<g><path style="opacity:0.886" fill="#685a83" d="M 119.5,75.5 C 116.581,81.4064 112.915,86.7397 108.5,91.5C 108.421,90.0695 108.754,88.7362 109.5,87.5C 109.03,86.537 108.363,86.537 107.5,87.5C 110.252,82.3263 113.252,77.3263 116.5,72.5C 118.437,71.8049 119.437,72.8049 119.5,75.5 Z"/></g>
<g><path style="opacity:1" fill="#7649cf" d="M 226.5,83.5 C 225.167,85.5 223.5,87.1667 221.5,88.5C 218.374,88.4851 215.707,89.4851 213.5,91.5C 212.167,91.5 210.833,91.5 209.5,91.5C 209.663,89.1432 209.497,86.8098 209,84.5C 207.001,82.7468 204.835,81.4135 202.5,80.5C 209.881,75.5793 214.381,77.5793 216,86.5C 217.388,87.5536 218.888,87.7203 220.5,87C 219.782,85.0126 218.782,83.1792 217.5,81.5C 217.808,80.6919 218.308,80.0253 219,79.5C 220.342,82.7943 222.842,84.1276 226.5,83.5 Z"/></g>
<g><path style="opacity:0.247" fill="#b9b9b9" d="M 431.5,70.5 C 432.5,70.5 433.5,70.5 434.5,70.5C 434.666,75.5111 434.499,80.5111 434,85.5C 433.487,84.4734 432.987,83.4734 432.5,82.5C 433.161,80.866 433.494,79.0326 433.5,77C 433.342,74.5505 432.675,72.3838 431.5,70.5 Z"/></g>
<g><path style="opacity:0.463" fill="#949494" d="M 430.5,79.5 C 431.906,79.9731 432.573,80.9731 432.5,82.5C 431.094,82.0269 430.427,81.0269 430.5,79.5 Z"/></g>
<g><path style="opacity:0.314" fill="#a7a7a7" d="M 308.5,96.5 C 308.5,92.8333 308.5,89.1667 308.5,85.5C 306.5,85.5 304.5,85.5 302.5,85.5C 302.784,87.4147 302.451,89.0813 301.5,90.5C 301.5,88.5 301.5,86.5 301.5,84.5C 304.167,84.5 306.833,84.5 309.5,84.5C 309.817,88.7016 309.483,92.7016 308.5,96.5 Z"/></g>
<g><path style="opacity:0.311" fill="#c4c4c4" d="M 395.5,85.5 C 393.167,85.5 390.833,85.5 388.5,85.5C 388.784,87.4147 388.451,89.0813 387.5,90.5C 387.5,88.5 387.5,86.5 387.5,84.5C 390.385,84.1936 393.052,84.5269 395.5,85.5 Z"/></g>
<g><path style="opacity:1" fill="#492f7c" d="M 171.5,72.5 C 175.608,75.2807 179.942,77.6141 184.5,79.5C 184.953,80.4584 185.619,81.2917 186.5,82C 188.433,82.2511 190.266,82.7511 192,83.5C 192.309,85.3914 191.475,86.7248 189.5,87.5C 191.5,88.1667 193.5,88.8333 195.5,89.5C 195.473,91.5266 195.473,93.5266 195.5,95.5C 188.668,95.7433 183.501,93.0766 180,87.5C 178.981,85.7306 178.814,84.0639 179.5,82.5C 177.665,81.5723 177.332,80.4056 178.5,79C 176.559,77.0972 174.226,76.2639 171.5,76.5C 171.5,75.1667 171.5,73.8333 171.5,72.5 Z"/></g>
<g><path style="opacity:1" fill="#533491" d="M 184.5,79.5 C 187.215,81.123 190.215,81.7896 193.5,81.5C 194.568,82.4345 195.901,82.7678 197.5,82.5C 198.994,86.277 199.661,90.277 199.5,94.5C 201.833,94.5 204.167,94.5 206.5,94.5C 206.5,94.8333 206.5,95.1667 206.5,95.5C 205.833,95.5 205.167,95.5 204.5,95.5C 201.5,95.5 198.5,95.5 195.5,95.5C 195.473,93.5266 195.473,91.5266 195.5,89.5C 193.5,88.8333 191.5,88.1667 189.5,87.5C 191.475,86.7248 192.309,85.3914 192,83.5C 190.266,82.7511 188.433,82.2511 186.5,82C 185.619,81.2917 184.953,80.4584 184.5,79.5 Z"/></g>
<g><path style="opacity:0.376" fill="#bdbdbd" d="M 340.5,84.5 C 339.968,87.4596 339.301,87.7929 338.5,85.5C 339.167,85.1667 339.833,84.8333 340.5,84.5 Z"/></g>
<g><path style="opacity:1" fill="#775bb0" d="M 138.5,73.5 C 141.969,78.2055 144.302,83.5388 145.5,89.5C 143.648,94.0187 142.314,98.6854 141.5,103.5C 137.689,108.023 133.689,112.523 129.5,117C 129.957,117.414 130.291,117.914 130.5,118.5C 129.753,118.736 128.92,119.07 128,119.5C 127.809,121.708 127.309,123.708 126.5,125.5C 126.672,123.508 126.005,121.842 124.5,120.5C 127.816,117.254 129.816,113.254 130.5,108.5C 131.249,106.964 132.249,105.631 133.5,104.5C 132.001,102.198 130.668,102.531 129.5,105.5C 129.206,102.023 130.206,98.6893 132.5,95.5C 132,95.1667 131.5,94.8333 131,94.5C 129.449,96.894 127.282,98.2273 124.5,98.5C 129.939,90.6243 134.606,82.291 138.5,73.5 Z"/></g>
<g><path style="opacity:1" fill="#050409" d="M 10.5,81.5 C 19.4594,103.46 35.7927,114.126 59.5,113.5C 66.0508,115.133 72.7175,115.799 79.5,115.5C 82.5983,115.413 82.9316,115.913 80.5,117C 82.8333,117.667 85.1667,117.667 87.5,117C 94.1657,115.723 100.499,113.556 106.5,110.5C 107.525,110.897 107.692,111.563 107,112.5C 105.634,114.362 104.134,116.028 102.5,117.5C 101.5,117.833 100.833,118.5 100.5,119.5C 96.1227,121.58 91.7894,123.58 87.5,125.5C 83.4262,126.636 79.4262,127.969 75.5,129.5C 74.2438,129.461 73.2438,129.961 72.5,131C 76.3575,131.81 80.0242,131.643 83.5,130.5C 90.8501,130.221 97.8501,128.554 104.5,125.5C 105.833,125.5 106.5,126.167 106.5,127.5C 100.763,131.968 94.4295,135.301 87.5,137.5C 78.7748,138.859 70.1082,138.525 61.5,136.5C 60.791,135.596 59.791,135.263 58.5,135.5C 57.0697,134.463 55.403,133.796 53.5,133.5C 49.5653,131.533 45.5653,129.533 41.5,127.5C 40.0351,126.263 38.3684,125.263 36.5,124.5C 22.4929,113.501 13.8263,99.1677 10.5,81.5 Z"/></g>
<g><path style="opacity:1" fill="#623cad" d="M 198.5,80.5 C 199.833,80.5 201.167,80.5 202.5,80.5C 204.835,81.4135 207.001,82.7468 209,84.5C 209.497,86.8098 209.663,89.1432 209.5,91.5C 210.833,91.5 212.167,91.5 213.5,91.5C 211.066,92.1311 208.732,93.1311 206.5,94.5C 204.167,94.5 201.833,94.5 199.5,94.5C 199.661,90.277 198.994,86.277 197.5,82.5C 195.901,82.7678 194.568,82.4345 193.5,81.5C 195.415,81.7845 197.081,81.4511 198.5,80.5 Z"/></g>
<g><path style="opacity:1" fill="#8c70c4" d="M 221.5,88.5 C 217.192,92.1522 212.192,94.4856 206.5,95.5C 206.5,95.1667 206.5,94.8333 206.5,94.5C 208.732,93.1311 211.066,92.1311 213.5,91.5C 215.707,89.4851 218.374,88.4851 221.5,88.5 Z"/></g>
<g><path style="opacity:0.933" fill="#424144" d="M 108.5,91.5 C 107.876,93.754 106.543,95.4206 104.5,96.5C 102.097,96.393 100.264,97.393 99,99.5C 98.6012,99.2716 98.4346,98.9382 98.5,98.5C 101.271,94.61 104.271,90.9433 107.5,87.5C 108.363,86.537 109.03,86.537 109.5,87.5C 108.754,88.7362 108.421,90.0695 108.5,91.5 Z"/></g>
<g><path style="opacity:0.384" fill="#b3b3b3" d="M 372.5,71.5 C 373.491,77.979 373.824,84.6457 373.5,91.5C 372.5,91.5 371.5,91.5 370.5,91.5C 370.5,93.1667 370.5,94.8333 370.5,96.5C 369.539,94.7354 369.205,92.7354 369.5,90.5C 370.5,90.5 371.5,90.5 372.5,90.5C 372.5,84.1667 372.5,77.8333 372.5,71.5 Z"/></g>
<g><path style="opacity:1" fill="#585858" d="M 33.5,86.5 C 35.9201,92.9305 39.5868,98.5972 44.5,103.5C 38.9877,101.988 34.9877,98.6549 32.5,93.5C 33.2389,93.631 33.9056,93.4643 34.5,93C 33.3279,92.5814 32.3279,91.9147 31.5,91C 33.1066,89.951 33.7733,88.451 33.5,86.5 Z"/></g>
<g><path style="opacity:0.976" fill="#8574ac" d="M 217.5,99.5 C 217.737,98.209 217.404,97.209 216.5,96.5C 221.764,93.071 226.264,88.7376 230,83.5C 228.336,90.6777 224.169,96.0111 217.5,99.5 Z"/></g>
<g><path style="opacity:0.831" fill="#636461" d="M 185.5,99.5 C 184.448,99.3505 183.448,99.5172 182.5,100C 185.08,101.144 187.747,101.978 190.5,102.5C 190.5,103.167 190.5,103.833 190.5,104.5C 184.287,103.817 178.62,101.65 173.5,98C 172.549,97.2825 172.383,96.4491 173,95.5C 177.191,97.0828 181.358,98.4162 185.5,99.5 Z"/></g>
<g><path style="opacity:0.984" fill="#554676" d="M 216.5,96.5 C 217.404,97.209 217.737,98.209 217.5,99.5C 215.388,101.771 212.721,103.104 209.5,103.5C 209.843,101.517 209.176,100.183 207.5,99.5C 210.215,97.9281 213.215,96.9281 216.5,96.5 Z"/></g>
<g><path style="opacity:0.89" fill="#6f6f6f" d="M 104.5,96.5 C 98.8301,102.668 91.8301,106.168 83.5,107C 88.8822,104.772 93.8822,101.938 98.5,98.5C 98.4346,98.9382 98.6012,99.2716 99,99.5C 100.264,97.393 102.097,96.393 104.5,96.5 Z"/></g>
<g><path style="opacity:1" fill="#222222" d="M 185.5,99.5 C 190.862,99.4724 196.195,99.8058 201.5,100.5C 202.873,100.343 204.207,100.51 205.5,101C 205.167,101.333 204.833,101.667 204.5,102C 199.845,102.499 195.179,102.666 190.5,102.5C 187.747,101.978 185.08,101.144 182.5,100C 183.448,99.5172 184.448,99.3505 185.5,99.5 Z"/></g>
<g><path style="opacity:0.985" fill="#414045" d="M 201.5,100.5 C 203.265,99.5386 205.265,99.2053 207.5,99.5C 209.176,100.183 209.843,101.517 209.5,103.5C 205.946,104.984 202.112,105.651 198,105.5C 195.31,105.497 192.81,105.164 190.5,104.5C 190.5,103.833 190.5,103.167 190.5,102.5C 195.179,102.666 199.845,102.499 204.5,102C 204.833,101.667 205.167,101.333 205.5,101C 204.207,100.51 202.873,100.343 201.5,100.5 Z"/></g>
<g><path style="opacity:1" fill="#6e6b76" d="M 129.5,83.5 C 129.167,84.8333 128.833,86.1667 128.5,87.5C 122.542,96.4583 115.209,104.125 106.5,110.5C 100.499,113.556 94.1657,115.723 87.5,117C 85.1667,117.667 82.8333,117.667 80.5,117C 82.9316,115.913 82.5983,115.413 79.5,115.5C 80.5676,114.566 81.901,114.232 83.5,114.5C 84.2739,115.147 85.2739,115.48 86.5,115.5C 92.8096,114.23 98.8096,112.063 104.5,109C 114.403,101.931 122.737,93.4311 129.5,83.5 Z"/></g>
<g><path style="opacity:1" fill="#201437" d="M 128.5,87.5 C 126.167,92.1667 123.833,96.8333 121.5,101.5C 116.344,108.331 110.01,113.664 102.5,117.5C 104.134,116.028 105.634,114.362 107,112.5C 107.692,111.563 107.525,110.897 106.5,110.5C 115.209,104.125 122.542,96.4583 128.5,87.5 Z"/></g>
<g><path style="opacity:1" fill="#8971b9" d="M 141.5,103.5 C 137.162,114.861 130.829,124.861 122.5,133.5C 122.714,131.856 122.38,130.356 121.5,129C 122.325,127.312 123.325,127.145 124.5,128.5C 125.425,127.643 126.092,126.643 126.5,125.5C 127.309,123.708 127.809,121.708 128,119.5C 128.92,119.07 129.753,118.736 130.5,118.5C 130.291,117.914 129.957,117.414 129.5,117C 133.689,112.523 137.689,108.023 141.5,103.5 Z"/></g>
<g><path style="opacity:1" fill="#8767c8" d="M 126.5,125.5 C 126.092,126.643 125.425,127.643 124.5,128.5C 123.325,127.145 122.325,127.312 121.5,129C 122.38,130.356 122.714,131.856 122.5,133.5C 119.312,138.358 114.979,141.692 109.5,143.5C 110.278,141.775 110.611,140.109 110.5,138.5C 112.071,139.309 113.738,139.643 115.5,139.5C 115.64,137.876 114.973,136.71 113.5,136C 114.167,135.333 114.833,134.667 115.5,134C 114.09,133.632 113.09,132.799 112.5,131.5C 113.716,130.904 115.049,130.737 116.5,131C 119.021,127.642 121.354,124.142 123.5,120.5C 122.311,119.571 120.978,119.238 119.5,119.5C 119.5,120.5 119.5,121.5 119.5,122.5C 117.801,122.34 116.134,122.506 114.5,123C 113.211,124.802 111.544,125.969 109.5,126.5C 112.462,123.036 115.629,119.703 119,116.5C 119.667,115.833 119.667,115.167 119,114.5C 114.55,118.798 109.717,122.465 104.5,125.5C 97.8501,128.554 90.8501,130.221 83.5,130.5C 80.6146,130.806 77.9479,130.473 75.5,129.5C 79.4262,127.969 83.4262,126.636 87.5,125.5C 87.0472,126.458 86.3805,127.292 85.5,128C 86.8333,128.167 88.1667,128.333 89.5,128.5C 94.8618,126.488 100.195,124.488 105.5,122.5C 105.5,121.5 105.5,120.5 105.5,119.5C 103.833,119.5 102.167,119.5 100.5,119.5C 100.833,118.5 101.5,117.833 102.5,117.5C 110.01,113.664 116.344,108.331 121.5,101.5C 122.728,100.694 123.728,99.6935 124.5,98.5C 127.282,98.2273 129.449,96.894 131,94.5C 131.5,94.8333 132,95.1667 132.5,95.5C 130.206,98.6893 129.206,102.023 129.5,105.5C 130.668,102.531 132.001,102.198 133.5,104.5C 132.249,105.631 131.249,106.964 130.5,108.5C 129.816,113.254 127.816,117.254 124.5,120.5C 126.005,121.842 126.672,123.508 126.5,125.5 Z"/></g>
<g><path style="opacity:0.598" fill="#6e6e6e" d="M 149.5,117.5 C 153.97,116.514 158.637,116.181 163.5,116.5C 163.5,118.5 163.5,120.5 163.5,122.5C 163.167,122.5 162.833,122.5 162.5,122.5C 162.5,120.833 162.5,119.167 162.5,117.5C 158.167,117.5 153.833,117.5 149.5,117.5 Z"/></g>
<g><path style="opacity:0.586" fill="#727272" d="M 227.5,117.5 C 235.65,116.507 243.983,116.174 252.5,116.5C 252.5,120.167 252.5,123.833 252.5,127.5C 252.167,127.5 251.833,127.5 251.5,127.5C 251.5,124.167 251.5,120.833 251.5,117.5C 243.5,117.5 235.5,117.5 227.5,117.5 Z"/></g>
<g><path style="opacity:0.581" fill="#797979" d="M 280.5,116.5 C 280.5,116.833 280.5,117.167 280.5,117.5C 276.167,117.5 271.833,117.5 267.5,117.5C 267.5,119.167 267.5,120.833 267.5,122.5C 267.167,122.5 266.833,122.5 266.5,122.5C 266.5,120.5 266.5,118.5 266.5,116.5C 271.167,116.5 275.833,116.5 280.5,116.5 Z"/></g>
<g><path style="opacity:0.575" fill="#727272" d="M 307.5,118.5 C 304.272,117.586 300.939,117.253 297.5,117.5C 297.5,119.167 297.5,120.833 297.5,122.5C 297.167,122.5 296.833,122.5 296.5,122.5C 296.5,120.5 296.5,118.5 296.5,116.5C 300.649,115.92 304.316,116.586 307.5,118.5 Z"/></g>
<g><path style="opacity:0.58" fill="#7a7a7a" d="M 358.5,116.5 C 358.5,116.833 358.5,117.167 358.5,117.5C 354.167,117.5 349.833,117.5 345.5,117.5C 345.5,119.167 345.5,120.833 345.5,122.5C 345.167,122.5 344.833,122.5 344.5,122.5C 344.5,120.5 344.5,118.5 344.5,116.5C 349.167,116.5 353.833,116.5 358.5,116.5 Z"/></g>
<g><path style="opacity:0.573" fill="#828282" d="M 429.5,117.5 C 425.167,117.5 420.833,117.5 416.5,117.5C 416.5,119.167 416.5,120.833 416.5,122.5C 418.179,122.285 419.179,122.952 419.5,124.5C 418.292,123.766 416.959,123.433 415.5,123.5C 415.5,121.167 415.5,118.833 415.5,116.5C 420.363,116.181 425.03,116.514 429.5,117.5 Z"/></g>
<g><path style="opacity:0.573" fill="#787878" d="M 432.5,117.5 C 436.97,116.514 441.637,116.181 446.5,116.5C 446.5,118.833 446.5,121.167 446.5,123.5C 445.5,123.5 444.5,123.5 443.5,123.5C 445.075,121.886 445.741,119.886 445.5,117.5C 441.167,117.5 436.833,117.5 432.5,117.5 Z"/></g>
<g><path style="opacity:1" fill="#040404" d="M 149.5,117.5 C 153.833,117.5 158.167,117.5 162.5,117.5C 162.5,119.167 162.5,120.833 162.5,122.5C 161.5,122.5 160.5,122.5 159.5,122.5C 159.5,129.167 159.5,135.833 159.5,142.5C 160.209,143.404 161.209,143.737 162.5,143.5C 162.5,145.167 162.5,146.833 162.5,148.5C 158.167,148.5 153.833,148.5 149.5,148.5C 149.5,146.5 149.5,144.5 149.5,142.5C 150.5,142.5 151.5,142.5 152.5,142.5C 153.491,136.021 153.824,129.354 153.5,122.5C 152.167,122.5 150.833,122.5 149.5,122.5C 149.5,120.833 149.5,119.167 149.5,117.5 Z"/></g>
<g><path style="opacity:0.106" fill="#a3a3a3" d="M 189.5,117.5 C 186.167,117.5 182.833,117.5 179.5,117.5C 179.5,119.167 179.5,120.833 179.5,122.5C 180.5,122.5 181.5,122.5 182.5,122.5C 182.824,129.354 182.491,136.021 181.5,142.5C 181.5,136.167 181.5,129.833 181.5,123.5C 180.5,123.5 179.5,123.5 178.5,123.5C 178.5,121.167 178.5,118.833 178.5,116.5C 182.371,116.185 186.038,116.518 189.5,117.5 Z"/></g>
<g><path style="opacity:1" fill="#0e0e0e" d="M 189.5,117.5 C 190.89,118.899 191.89,120.566 192.5,122.5C 192.427,124.027 193.094,125.027 194.5,125.5C 194.427,127.027 195.094,128.027 196.5,128.5C 197.338,128.842 197.672,129.508 197.5,130.5C 197.427,132.027 198.094,133.027 199.5,133.5C 199.685,135.196 200.519,136.529 202,137.5C 202.499,132.511 202.666,127.511 202.5,122.5C 201.5,122.5 200.5,122.5 199.5,122.5C 199.5,120.833 199.5,119.167 199.5,117.5C 203.5,117.5 207.5,117.5 211.5,117.5C 211.5,119.167 211.5,120.833 211.5,122.5C 210.5,122.5 209.5,122.5 208.5,122.5C 208.5,131.167 208.5,139.833 208.5,148.5C 205.753,148.813 203.086,148.48 200.5,147.5C 196.744,142.415 193.411,137.082 190.5,131.5C 190.539,130.244 190.039,129.244 189,128.5C 188.185,133.352 188.352,138.019 189.5,142.5C 191.308,143.918 191.975,145.918 191.5,148.5C 187.167,148.5 182.833,148.5 178.5,148.5C 178.5,146.5 178.5,144.5 178.5,142.5C 179.5,142.5 180.5,142.5 181.5,142.5C 182.491,136.021 182.824,129.354 182.5,122.5C 181.5,122.5 180.5,122.5 179.5,122.5C 179.5,120.833 179.5,119.167 179.5,117.5C 182.833,117.5 186.167,117.5 189.5,117.5 Z"/></g>
<g><path style="opacity:1" fill="#0c0c0c" d="M 227.5,117.5 C 235.5,117.5 243.5,117.5 251.5,117.5C 251.5,120.833 251.5,124.167 251.5,127.5C 249.5,127.5 247.5,127.5 245.5,127.5C 245.768,125.901 245.434,124.568 244.5,123.5C 242.5,123.5 240.5,123.5 238.5,123.5C 237.532,125.607 237.198,127.941 237.5,130.5C 239.833,130.5 242.167,130.5 244.5,130.5C 244.5,132.167 244.5,133.833 244.5,135.5C 242.167,135.5 239.833,135.5 237.5,135.5C 237.5,138.167 237.5,140.833 237.5,143.5C 238.5,143.5 239.5,143.5 240.5,143.5C 240.5,145.167 240.5,146.833 240.5,148.5C 236.167,148.5 231.833,148.5 227.5,148.5C 227.5,146.5 227.5,144.5 227.5,142.5C 228.5,142.5 229.5,142.5 230.5,142.5C 230.5,136.167 230.5,129.833 230.5,123.5C 229.5,123.5 228.5,123.5 227.5,123.5C 227.5,121.5 227.5,119.5 227.5,117.5 Z"/></g>
<g><path style="opacity:1" fill="#121212" d="M 280.5,117.5 C 280.5,119.167 280.5,120.833 280.5,122.5C 279.209,122.263 278.209,122.596 277.5,123.5C 277.5,129.833 277.5,136.167 277.5,142.5C 278.833,142.5 280.167,142.5 281.5,142.5C 281.5,144.5 281.5,146.5 281.5,148.5C 276.5,148.5 271.5,148.5 266.5,148.5C 266.5,146.5 266.5,144.5 266.5,142.5C 267.5,142.5 268.5,142.5 269.5,142.5C 270.491,136.021 270.824,129.354 270.5,122.5C 269.5,122.5 268.5,122.5 267.5,122.5C 267.5,120.833 267.5,119.167 267.5,117.5C 271.833,117.5 276.167,117.5 280.5,117.5 Z"/></g>
<g><path style="opacity:1" fill="#101010" d="M 307.5,118.5 C 307.427,120.027 308.094,121.027 309.5,121.5C 309.427,123.027 310.094,124.027 311.5,124.5C 312.89,125.899 313.89,127.566 314.5,129.5C 314.427,131.027 315.094,132.027 316.5,132.5C 317.315,133.429 318.148,134.429 319,135.5C 319.499,131.514 319.666,127.514 319.5,123.5C 317.925,121.886 317.259,119.886 317.5,117.5C 321.167,117.5 324.833,117.5 328.5,117.5C 328.741,119.886 328.075,121.886 326.5,123.5C 326.5,131.833 326.5,140.167 326.5,148.5C 323.615,148.806 320.948,148.473 318.5,147.5C 318.446,145.368 317.446,144.035 315.5,143.5C 312.571,139.306 309.905,134.973 307.5,130.5C 307.631,129.624 307.298,128.957 306.5,128.5C 305.188,133.318 305.188,137.985 306.5,142.5C 307.5,142.5 308.5,142.5 309.5,142.5C 309.5,144.5 309.5,146.5 309.5,148.5C 305.5,148.5 301.5,148.5 297.5,148.5C 297.259,146.114 297.925,144.114 299.5,142.5C 300.126,135.416 299.459,128.75 297.5,122.5C 297.5,120.833 297.5,119.167 297.5,117.5C 300.939,117.253 304.272,117.586 307.5,118.5 Z"/></g>
<g><path style="opacity:0.693" fill="#868686" d="M 326.5,123.5 C 328.075,121.886 328.741,119.886 328.5,117.5C 324.833,117.5 321.167,117.5 317.5,117.5C 317.259,119.886 317.925,121.886 319.5,123.5C 318.5,123.5 317.5,123.5 316.5,123.5C 316.5,121.167 316.5,118.833 316.5,116.5C 320.833,116.5 325.167,116.5 329.5,116.5C 329.5,118.833 329.5,121.167 329.5,123.5C 328.5,123.5 327.5,123.5 326.5,123.5 Z"/></g>
<g><path style="opacity:1" fill="#121212" d="M 358.5,117.5 C 358.5,119.167 358.5,120.833 358.5,122.5C 357.209,122.263 356.209,122.596 355.5,123.5C 355.5,129.833 355.5,136.167 355.5,142.5C 356.833,142.5 358.167,142.5 359.5,142.5C 359.5,144.5 359.5,146.5 359.5,148.5C 354.5,148.5 349.5,148.5 344.5,148.5C 344.5,146.5 344.5,144.5 344.5,142.5C 345.5,142.5 346.5,142.5 347.5,142.5C 348.491,136.021 348.824,129.354 348.5,122.5C 347.5,122.5 346.5,122.5 345.5,122.5C 345.5,120.833 345.5,119.167 345.5,117.5C 349.833,117.5 354.167,117.5 358.5,117.5 Z"/></g>
<g><path style="opacity:0.124" fill="#e3e3e3" d="M 358.5,116.5 C 359.468,118.607 359.802,120.941 359.5,123.5C 358.167,123.5 356.833,123.5 355.5,123.5C 356.209,122.596 357.209,122.263 358.5,122.5C 358.5,120.833 358.5,119.167 358.5,117.5C 358.5,117.167 358.5,116.833 358.5,116.5 Z"/></g>
<g><path style="opacity:1" fill="#1a1a1a" d="M 380.5,148.5 C 380.5,146.833 380.5,145.167 380.5,143.5C 381.5,143.5 382.5,143.5 383.5,143.5C 383.825,136.313 383.491,129.313 382.5,122.5C 381.5,122.5 380.5,122.5 379.5,122.5C 379.5,124.167 379.5,125.833 379.5,127.5C 377.167,127.5 374.833,127.5 372.5,127.5C 372.5,123.833 372.5,120.167 372.5,116.5C 382.167,116.5 391.833,116.5 401.5,116.5C 401.5,120.167 401.5,123.833 401.5,127.5C 399.167,127.5 396.833,127.5 394.5,127.5C 394.5,125.833 394.5,124.167 394.5,122.5C 393.167,122.5 391.833,122.5 390.5,122.5C 390.5,129.167 390.5,135.833 390.5,142.5C 391.833,142.5 393.167,142.5 394.5,142.5C 394.5,144.5 394.5,146.5 394.5,148.5C 389.833,148.5 385.167,148.5 380.5,148.5 Z"/></g>
<g><path style="opacity:1" fill="#181818" d="M 429.5,117.5 C 429.5,119.167 429.5,120.833 429.5,122.5C 427.576,122.711 427.243,123.377 428.5,124.5C 429.504,125.683 430.338,127.016 431,128.5C 432.046,126.91 433.213,125.41 434.5,124C 432.75,122.246 432.083,120.079 432.5,117.5C 436.833,117.5 441.167,117.5 445.5,117.5C 445.741,119.886 445.075,121.886 443.5,123.5C 440.922,127.646 438.089,131.646 435,135.5C 434.503,137.81 434.337,140.143 434.5,142.5C 435.833,142.5 437.167,142.5 438.5,142.5C 438.5,144.5 438.5,146.5 438.5,148.5C 433.5,148.5 428.5,148.5 423.5,148.5C 423.5,146.5 423.5,144.5 423.5,142.5C 424.833,142.5 426.167,142.5 427.5,142.5C 427.663,140.143 427.497,137.81 427,135.5C 424.49,131.805 421.99,128.138 419.5,124.5C 419.179,122.952 418.179,122.285 416.5,122.5C 416.5,120.833 416.5,119.167 416.5,117.5C 420.833,117.5 425.167,117.5 429.5,117.5 Z"/></g>
<g><path style="opacity:0.502" fill="#888888" d="M 307.5,118.5 C 308.906,118.973 309.573,119.973 309.5,121.5C 308.094,121.027 307.427,120.027 307.5,118.5 Z"/></g>
<g><path style="opacity:0.122" fill="#e5e5e5" d="M 280.5,116.5 C 281.468,118.607 281.802,120.941 281.5,123.5C 280.167,123.5 278.833,123.5 277.5,123.5C 278.209,122.596 279.209,122.263 280.5,122.5C 280.5,120.833 280.5,119.167 280.5,117.5C 280.5,117.167 280.5,116.833 280.5,116.5 Z"/></g>
<g><path style="opacity:0.149" fill="#d9d9d9" d="M 429.5,122.5 C 429.167,123.167 428.833,123.833 428.5,124.5C 427.243,123.377 427.576,122.711 429.5,122.5 Z"/></g>
<g><path style="opacity:1" fill="#9972eb" d="M 100.5,119.5 C 102.167,119.5 103.833,119.5 105.5,119.5C 105.5,120.5 105.5,121.5 105.5,122.5C 100.195,124.488 94.8618,126.488 89.5,128.5C 88.1667,128.333 86.8333,128.167 85.5,128C 86.3805,127.292 87.0472,126.458 87.5,125.5C 91.7894,123.58 96.1227,121.58 100.5,119.5 Z"/></g>
<g><path style="opacity:1" fill="#211147" d="M 109.5,126.5 C 108.391,126.557 107.391,126.89 106.5,127.5C 106.5,126.167 105.833,125.5 104.5,125.5C 109.717,122.465 114.55,118.798 119,114.5C 119.667,115.167 119.667,115.833 119,116.5C 115.629,119.703 112.462,123.036 109.5,126.5 Z"/></g>
<g><path style="opacity:0.279" fill="#bcbcbc" d="M 162.5,122.5 C 162.833,122.5 163.167,122.5 163.5,122.5C 162.791,123.404 161.791,123.737 160.5,123.5C 160.5,129.833 160.5,136.167 160.5,142.5C 160.167,142.5 159.833,142.5 159.5,142.5C 159.5,135.833 159.5,129.167 159.5,122.5C 160.5,122.5 161.5,122.5 162.5,122.5 Z"/></g>
<g><path style="opacity:0.396" fill="#9c9c9c" d="M 309.5,121.5 C 310.906,121.973 311.573,122.973 311.5,124.5C 310.094,124.027 309.427,123.027 309.5,121.5 Z"/></g>
<g><path style="opacity:0.637" fill="#6a6a6a" d="M 149.5,122.5 C 150.833,122.5 152.167,122.5 153.5,122.5C 153.824,129.354 153.491,136.021 152.5,142.5C 152.5,136.167 152.5,129.833 152.5,123.5C 151.209,123.737 150.209,123.404 149.5,122.5 Z"/></g>
<g><path style="opacity:0.529" fill="#868686" d="M 192.5,122.5 C 193.906,122.973 194.573,123.973 194.5,125.5C 193.094,125.027 192.427,124.027 192.5,122.5 Z"/></g>
<g><path style="opacity:0.247" fill="#bebebe" d="M 211.5,122.5 C 209.893,131.083 208.893,139.75 208.5,148.5C 208.5,139.833 208.5,131.167 208.5,122.5C 209.5,122.5 210.5,122.5 211.5,122.5 Z"/></g>
<g><path style="opacity:0.117" fill="#dddddd" d="M 266.5,122.5 C 266.833,122.5 267.167,122.5 267.5,122.5C 268.5,122.5 269.5,122.5 270.5,122.5C 270.824,129.354 270.491,136.021 269.5,142.5C 269.5,136.167 269.5,129.833 269.5,123.5C 268.209,123.737 267.209,123.404 266.5,122.5 Z"/></g>
<g><path style="opacity:0.036" fill="#f7f7f7" d="M 296.5,122.5 C 296.833,122.5 297.167,122.5 297.5,122.5C 299.459,128.75 300.126,135.416 299.5,142.5C 299.167,142.5 298.833,142.5 298.5,142.5C 299.066,135.549 298.399,128.882 296.5,122.5 Z"/></g>
<g><path style="opacity:0.119" fill="#dedede" d="M 344.5,122.5 C 344.833,122.5 345.167,122.5 345.5,122.5C 346.5,122.5 347.5,122.5 348.5,122.5C 348.824,129.354 348.491,136.021 347.5,142.5C 347.5,136.167 347.5,129.833 347.5,123.5C 346.209,123.737 345.209,123.404 344.5,122.5 Z"/></g>
<g><path style="opacity:0.427" fill="#9a9a9a" d="M 194.5,125.5 C 195.906,125.973 196.573,126.973 196.5,128.5C 195.094,128.027 194.427,127.027 194.5,125.5 Z"/></g>
<g><path style="opacity:0.187" fill="#d0d0d0" d="M 244.5,123.5 C 245.434,124.568 245.768,125.901 245.5,127.5C 247.5,127.5 249.5,127.5 251.5,127.5C 251.833,127.5 252.167,127.5 252.5,127.5C 250.052,128.473 247.385,128.806 244.5,128.5C 244.5,126.833 244.5,125.167 244.5,123.5 Z"/></g>
<g><path style="opacity:0.212" fill="#b5b5b5" d="M 382.5,122.5 C 383.491,129.313 383.825,136.313 383.5,143.5C 382.5,143.5 381.5,143.5 380.5,143.5C 380.5,145.167 380.5,146.833 380.5,148.5C 379.539,146.735 379.205,144.735 379.5,142.5C 380.5,142.5 381.5,142.5 382.5,142.5C 382.5,135.833 382.5,129.167 382.5,122.5 Z"/></g>
<g><path style="opacity:0.502" fill="#8c8c8c" d="M 211.5,117.5 C 207.5,117.5 203.5,117.5 199.5,117.5C 199.5,119.167 199.5,120.833 199.5,122.5C 200.5,122.5 201.5,122.5 202.5,122.5C 202.666,127.511 202.499,132.511 202,137.5C 200.519,136.529 199.685,135.196 199.5,133.5C 200.117,133.611 200.617,133.944 201,134.5C 201.499,130.848 201.665,127.182 201.5,123.5C 200.5,123.5 199.5,123.5 198.5,123.5C 198.5,121.167 198.5,118.833 198.5,116.5C 203.032,116.182 207.366,116.515 211.5,117.5 Z"/></g>
<g><path style="opacity:0.588" fill="#838383" d="M 238.5,123.5 C 238.5,125.5 238.5,127.5 238.5,129.5C 240.735,129.205 242.735,129.539 244.5,130.5C 242.167,130.5 239.833,130.5 237.5,130.5C 237.198,127.941 237.532,125.607 238.5,123.5 Z"/></g>
<g><path style="opacity:1" fill="#453078" d="M 75.5,129.5 C 77.9479,130.473 80.6146,130.806 83.5,130.5C 80.0242,131.643 76.3575,131.81 72.5,131C 73.2438,129.961 74.2438,129.461 75.5,129.5 Z"/></g>
<g><path style="opacity:0.451" fill="#989898" d="M 314.5,129.5 C 315.906,129.973 316.573,130.973 316.5,132.5C 315.094,132.027 314.427,131.027 314.5,129.5 Z"/></g>
<g><path style="opacity:0.58" fill="#7d7d7d" d="M 197.5,130.5 C 198.906,130.973 199.573,131.973 199.5,133.5C 198.094,133.027 197.427,132.027 197.5,130.5 Z"/></g>
<g><path style="opacity:0.684" fill="#595959" d="M 307.5,130.5 C 306.517,134.298 306.183,138.298 306.5,142.5C 305.188,137.985 305.188,133.318 306.5,128.5C 307.298,128.957 307.631,129.624 307.5,130.5 Z"/></g>
<g><path style="opacity:1" fill="#916ade" d="M 109.5,143.5 C 109.5,144.167 109.167,144.5 108.5,144.5C 105.673,144.584 103.006,145.25 100.5,146.5C 100.5,145.5 100.5,144.5 100.5,143.5C 96.6727,143.56 96.006,142.393 98.5,140C 97.1667,139.333 96.1667,138.333 95.5,137C 92.8428,136.825 90.1761,136.992 87.5,137.5C 94.4295,135.301 100.763,131.968 106.5,127.5C 107.391,126.89 108.391,126.557 109.5,126.5C 111.544,125.969 113.211,124.802 114.5,123C 116.134,122.506 117.801,122.34 119.5,122.5C 119.5,121.5 119.5,120.5 119.5,119.5C 120.978,119.238 122.311,119.571 123.5,120.5C 121.354,124.142 119.021,127.642 116.5,131C 115.049,130.737 113.716,130.904 112.5,131.5C 113.09,132.799 114.09,133.632 115.5,134C 114.833,134.667 114.167,135.333 113.5,136C 114.973,136.71 115.64,137.876 115.5,139.5C 113.738,139.643 112.071,139.309 110.5,138.5C 110.611,140.109 110.278,141.775 109.5,143.5 Z"/></g>
<g><path style="opacity:0.178" fill="#cccccc" d="M 190.5,131.5 C 189.518,134.962 189.185,138.629 189.5,142.5C 188.352,138.019 188.185,133.352 189,128.5C 190.039,129.244 190.539,130.244 190.5,131.5 Z"/></g>
<g><path style="opacity:1" fill="#645286" d="M 41.5,127.5 C 45.5653,129.533 49.5653,131.533 53.5,133.5C 50.8239,132.992 48.1572,132.825 45.5,133C 46.2931,134.085 46.9598,135.252 47.5,136.5C 45.6878,139.899 45.0211,143.566 45.5,147.5C 47.8209,148.477 50.1542,149.477 52.5,150.5C 53.1667,150.5 53.5,150.833 53.5,151.5C 48.3619,150.921 43.6953,149.254 39.5,146.5C 37.6095,140.661 37.4428,134.661 39,128.5C 39.6708,127.748 40.5041,127.414 41.5,127.5 Z"/></g>
<g><path style="opacity:0.467" fill="#888888" d="M 244.5,135.5 C 242.735,136.461 240.735,136.795 238.5,136.5C 238.5,138.5 238.5,140.5 238.5,142.5C 239.5,142.5 240.5,142.5 241.5,142.5C 241.795,144.735 241.461,146.735 240.5,148.5C 240.5,146.833 240.5,145.167 240.5,143.5C 239.5,143.5 238.5,143.5 237.5,143.5C 237.5,140.833 237.5,138.167 237.5,135.5C 239.833,135.5 242.167,135.5 244.5,135.5 Z"/></g>
<g><path style="opacity:1" fill="#775baf" d="M 53.5,133.5 C 55.403,133.796 57.0697,134.463 58.5,135.5C 55.8333,135.167 53.1667,134.833 50.5,134.5C 49.9895,138.315 49.6562,142.149 49.5,146C 50.5549,147.507 51.5549,149.007 52.5,150.5C 50.1542,149.477 47.8209,148.477 45.5,147.5C 45.0211,143.566 45.6878,139.899 47.5,136.5C 46.9598,135.252 46.2931,134.085 45.5,133C 48.1572,132.825 50.8239,132.992 53.5,133.5 Z"/></g>
<g><path style="opacity:1" fill="#a174f9" d="M 61.5,136.5 C 70.1082,138.525 78.7748,138.859 87.5,137.5C 90.1761,136.992 92.8428,136.825 95.5,137C 96.1667,138.333 97.1667,139.333 98.5,140C 96.006,142.393 96.6727,143.56 100.5,143.5C 100.5,144.5 100.5,145.5 100.5,146.5C 97.5072,147.465 94.8405,148.798 92.5,150.5C 91.4324,151.434 90.099,151.768 88.5,151.5C 78.151,152.6 67.8177,152.6 57.5,151.5C 53.6304,150.72 52.7971,148.72 55,145.5C 55.498,142.518 55.6646,139.518 55.5,136.5C 57.5,136.5 59.5,136.5 61.5,136.5 Z"/></g>
<g><path style="opacity:1" fill="#4c465b" d="M 36.5,124.5 C 38.3684,125.263 40.0351,126.263 41.5,127.5C 40.5041,127.414 39.6708,127.748 39,128.5C 37.4428,134.661 37.6095,140.661 39.5,146.5C 35.3171,144.913 31.6505,142.579 28.5,139.5C 30.1439,139.286 31.6439,139.62 33,140.5C 34.2148,135.949 34.8814,131.282 35,126.5C 35.7172,125.956 36.2172,125.289 36.5,124.5 Z"/></g>
<g><path style="opacity:0.624" fill="#616161" d="M 159.5,142.5 C 159.833,142.5 160.167,142.5 160.5,142.5C 161.5,142.5 162.5,142.5 163.5,142.5C 163.795,144.735 163.461,146.735 162.5,148.5C 162.5,146.833 162.5,145.167 162.5,143.5C 161.209,143.737 160.209,143.404 159.5,142.5 Z"/></g>
<g><path style="opacity:0.638" fill="#616161" d="M 298.5,142.5 C 298.833,142.5 299.167,142.5 299.5,142.5C 297.925,144.114 297.259,146.114 297.5,148.5C 296.853,147.726 296.52,146.726 296.5,145.5C 296.64,143.97 297.307,142.97 298.5,142.5 Z"/></g>
<g><path style="opacity:0.937" fill="#7e7e7e" d="M 315.5,143.5 C 317.446,144.035 318.446,145.368 318.5,147.5C 317.026,146.564 316.026,145.23 315.5,143.5 Z"/></g>
<g><path style="opacity:1" fill="#8967d1" d="M 58.5,135.5 C 59.791,135.263 60.791,135.596 61.5,136.5C 59.5,136.5 57.5,136.5 55.5,136.5C 55.6646,139.518 55.498,142.518 55,145.5C 52.7971,148.72 53.6304,150.72 57.5,151.5C 56.1667,151.5 54.8333,151.5 53.5,151.5C 53.5,150.833 53.1667,150.5 52.5,150.5C 51.5549,149.007 50.5549,147.507 49.5,146C 49.6562,142.149 49.9895,138.315 50.5,134.5C 53.1667,134.833 55.8333,135.167 58.5,135.5 Z"/></g>
<g><path style="opacity:1" fill="#b297e3" d="M 108.5,144.5 C 103.647,147.585 98.3135,149.585 92.5,150.5C 94.8405,148.798 97.5072,147.465 100.5,146.5C 103.006,145.25 105.673,144.584 108.5,144.5 Z"/></g>
<g><path style="opacity:0.992" fill="#b395ec" d="M 53.5,151.5 C 54.8333,151.5 56.1667,151.5 57.5,151.5C 67.8177,152.6 78.151,152.6 88.5,151.5C 86.5,152.167 84.5,152.833 82.5,153.5C 74.5,153.5 66.5,153.5 58.5,153.5C 56.8333,152.833 55.1667,152.167 53.5,151.5 Z"/></g>
</svg>
